<svg xmlns="http://www.w3.org/2000/svg" viewBox="0 0 256 256">
  <title>Levelrail</title>
  <path fill="#0B0E14" d="M56,0 H200 A56,56 0 0 1 256,56 V200 A56,56 0 0 1 200,256 H56 A56,56 0 0 1 0,200 V56 A56,56 0 0 1 56,0 Z"/>
  <rect x="52" y="160" width="152" height="34" rx="11" fill="#0B0E14"/>
  <rect x="52" y="155" width="152" height="34" rx="11" fill="#084F67"/>
  <rect x="72" y="124" width="112" height="34" rx="11" fill="#0B0E14"/>
  <rect x="72" y="119" width="112" height="34" rx="11" fill="#107292"/>
  <rect x="92" y="88" width="72" height="34" rx="11" fill="#0B0E14"/>
  <rect x="92" y="83" width="72" height="34" rx="11" fill="#58B1CE"/>
</svg>
